<svg height="512pt" viewBox="0 -61 512 512" width="512pt" xmlns="http://www.w3.org/2000/svg"><path d="m256 30h150v30h-150zm0 0" fill="#444"/><path d="m121 0h150v105h-150zm0 0" fill="#6e6e6e"/><path d="m196 0h75v105h-75zm0 0" fill="#5a5a5a"/><path d="m512 240-31 90h-481v-90l196-24.300781 45-5.699219zm0 0" fill="#00cc71"/><path d="m512 240-31 90h-285v-114.300781l45-5.699219zm0 0" fill="#00ab5e"/><path d="m512 240h-512v-150h421zm0 0" fill="#00ee84"/><path d="m512 240h-316v-150h225zm0 0" fill="#00cc71"/><path d="m106 150h60v30h-60zm0 0" fill="#5a5a5a"/><path d="m226 150h60v30h-60zm0 0" fill="#444"/><path d="m346 150h60v30h-60zm0 0" fill="#444"/><path d="m391 15h30v60h-30zm0 0" fill="#5a5a5a"/><path d="m91 270c-33 0-60 27-60 60s27 60 60 60 60-27 60-60-27-60-60-60zm0 0" fill="#5a5a5a"/><path d="m151 330c0 33-27 60-60 60v-120c33 0 60 27 60 60zm0 0" fill="#444"/><path d="m91 300c-16.5 0-30 13.5-30 30s13.5 30 30 30 30-13.5 30-30-13.5-30-30-30zm0 0" fill="#ececf1"/><path d="m121 330c0 16.5-13.5 30-30 30v-60c16.5 0 30 13.5 30 30zm0 0" fill="#e2e2e7"/><path d="m241 270c-33 0-60 27-60 60s27 60 60 60 60-27 60-60-27-60-60-60zm0 0" fill="#5a5a5a"/><path d="m301 330c0 33-27 60-60 60v-120c33 0 60 27 60 60zm0 0" fill="#444"/><path d="m241 300c-16.5 0-30 13.5-30 30s13.5 30 30 30 30-13.5 30-30-13.5-30-30-30zm0 0" fill="#ececf1"/><path d="m271 330c0 16.5-13.5 30-30 30v-60c16.5 0 30 13.5 30 30zm0 0" fill="#e2e2e7"/><path d="m391 270c-33 0-60 27-60 60s27 60 60 60 60-27 60-60-27-60-60-60zm0 0" fill="#5a5a5a"/><path d="m451 330c0 33-27 60-60 60v-120c33 0 60 27 60 60zm0 0" fill="#444"/><path d="m391 300c-16.5 0-30 13.5-30 30s13.5 30 30 30 30-13.5 30-30-13.5-30-30-30zm0 0" fill="#ececf1"/><path d="m421 330c0 16.5-13.5 30-30 30v-60c16.5 0 30 13.5 30 30zm0 0" fill="#e2e2e7"/></svg>